<?xml version="1.0" standalone="no"?>
<!DOCTYPE svg PUBLIC "-//W3C//DTD SVG 20010904//EN"
 "http://www.w3.org/TR/2001/REC-SVG-20010904/DTD/svg10.dtd">
<svg version="1.0" xmlns="http://www.w3.org/2000/svg"
 width="356.000000pt" height="356.000000pt" viewBox="0 0 356.000000 356.000000"
 preserveAspectRatio="xMidYMid meet">
<metadata>
Created by potrace 1.11, written by Peter Selinger 2001-2013
</metadata>
<g transform="translate(0.000000,356.000000) scale(0.100000,-0.100000)"
fill="#000000" stroke="none">
<path d="M1408 2815 c-26 -6 -62 -23 -80 -37 -33 -25 -86 -110 -66 -105 6 1
13 -4 16 -12 3 -9 0 -11 -8 -6 -9 6 -11 4 -5 -6 17 -26 10 -64 -13 -74 -12 -5
-22 -16 -22 -23 0 -7 -4 -11 -9 -8 -4 3 -6 -6 -3 -21 3 -18 1 -24 -6 -19 -8 5
-10 1 -6 -9 4 -8 1 -21 -5 -29 -6 -7 -8 -16 -4 -19 3 -4 1 -7 -6 -7 -7 0 -10
-4 -7 -9 9 -14 -17 -74 -46 -106 -16 -16 -28 -34 -28 -38 0 -5 -3 -6 -8 -4 -4
3 -7 -25 -7 -61 0 -37 -1 -72 -3 -79 -2 -8 -26 -12 -63 -12 -36 1 -67 -5 -76
-13 -11 -8 -14 -9 -10 -1 6 9 -9 12 -53 12 -43 -1 -58 -4 -54 -12 5 -8 2 -8
-7 1 -7 6 -32 12 -56 12 -28 0 -43 -4 -43 -12 0 -10 -2 -10 -8 -2 -10 17 -304
17 -314 1 -6 -9 -8 -9 -8 0 0 16 -139 16 -159 0 -12 -9 -13 -9 -7 1 5 8 -1 12
-18 12 -14 0 -26 -6 -26 -12 0 -10 -2 -10 -8 -1 -11 17 -42 10 -62 -14 -15
-19 -17 -53 -18 -265 -2 -245 5 -297 36 -290 7 1 12 -2 12 -8 0 -6 117 -10
330 -10 288 0 329 -2 324 -15 -4 -8 -11 -12 -17 -8 -5 3 -7 1 -4 -4 8 -13 -27
-55 -38 -45 -5 4 -5 2 -1 -5 4 -7 2 -20 -3 -30 -5 -10 -15 -52 -21 -92 -6 -41
-16 -82 -23 -90 -10 -12 -9 -13 3 -6 12 7 13 6 3 -7 -7 -8 -11 -17 -8 -19 2
-3 0 -22 -6 -44 -5 -22 -12 -60 -14 -84 -3 -24 -21 -80 -39 -124 -19 -45 -31
-88 -28 -95 2 -8 8 -9 11 -4 3 5 16 8 28 7 12 -1 20 2 17 7 -3 4 -2 8 3 9 4 1
22 3 38 5 17 2 36 5 43 6 6 1 12 6 12 12 0 6 4 4 10 -4 6 -9 5 -17 -3 -23 -8
-6 -7 -7 3 -4 8 2 14 12 14 21 -1 9 1 16 5 17 3 0 15 2 25 4 20 4 70 -28 60
-38 -3 -3 1 -4 10 -3 8 1 19 6 23 11 4 4 2 5 -4 1 -7 -4 -13 -2 -13 3 0 6 -8
11 -17 11 -13 0 -14 3 -5 12 8 8 15 8 26 -1 12 -10 19 -10 36 2 17 12 18 15 6
20 -9 4 -15 1 -13 -5 1 -6 -4 -13 -12 -16 -9 -3 -11 0 -6 8 5 8 4 11 -3 6 -6
-3 -14 -1 -18 6 -4 7 -4 10 0 6 4 -3 23 0 42 8 19 8 39 12 44 9 6 -4 10 -2 10
3 0 5 6 9 13 10 21 2 42 7 54 15 6 4 18 4 27 1 9 -3 16 -2 16 4 0 14 33 8 38
-6 4 -13 42 6 42 22 0 4 -7 3 -15 -4 -9 -7 -18 -10 -22 -6 -10 10 0 15 41 22
26 4 36 2 31 -5 -3 -6 -11 -9 -16 -6 -5 4 -9 1 -9 -4 0 -17 12 -13 43 17 17
15 27 22 24 17 -3 -6 -1 -17 4 -25 9 -13 10 -13 8 0 -3 28 1 41 10 35 5 -3 13
0 16 6 4 5 13 8 20 5 8 -3 15 -1 17 4 2 5 14 11 28 13 44 8 55 12 60 18 3 4
16 9 30 10 14 2 28 9 32 14 5 6 8 4 8 -4 0 -11 4 -10 16 5 8 10 12 13 8 5 -4
-7 8 -3 25 10 27 20 33 21 41 9 6 -9 5 -17 -3 -22 -6 -4 -15 -2 -19 5 -4 6
-10 8 -15 4 -13 -14 20 -26 39 -16 14 7 17 16 12 32 -3 12 -3 19 1 15 4 -4 23
2 42 13 19 11 31 14 27 8 -4 -8 0 -9 15 -4 17 5 20 3 15 -12 -6 -16 -5 -15 9
2 9 11 16 25 17 30 0 6 -4 5 -8 -2 -4 -7 -12 -9 -18 -5 -7 4 3 14 23 23 22 11
35 13 40 6 4 -6 1 -7 -7 -2 -9 6 -11 4 -5 -5 5 -9 4 -11 -3 -6 -8 5 -10 2 -6
-9 6 -14 8 -14 19 2 7 9 11 22 8 29 -4 11 13 23 29 20 4 0 14 8 23 19 9 11 14
14 10 8 -6 -12 7 -18 29 -14 5 1 6 -4 3 -12 -3 -7 1 -14 8 -14 10 0 11 5 4 19
-6 10 -14 16 -20 13 -5 -4 -9 -2 -9 3 0 17 12 21 31 9 22 -14 38 -2 19 16 -10
9 -11 9 -6 0 4 -7 2 -13 -3 -13 -26 0 -7 22 35 40 25 11 52 27 60 35 14 14 28
19 38 13 2 -2 13 6 25 16 24 22 26 18 8 -18 -8 -14 -17 -24 -20 -21 -4 3 -5 2
-2 -2 3 -4 14 -7 25 -8 15 -1 17 2 9 11 -16 19 35 93 73 107 16 5 34 -17 29
-36 -1 -5 3 -6 9 -2 6 4 4 15 -6 30 -9 14 -20 22 -25 19 -19 -11 -8 9 19 35
24 24 35 27 112 30 46 1 91 8 99 14 12 9 13 9 7 -1 -6 -10 95 -12 514 -12 497
1 523 2 542 20 12 11 18 25 14 35 -3 9 -2 13 4 10 5 -3 9 51 9 137 0 99 -4
145 -12 150 -9 6 -9 8 1 8 10 0 13 22 11 93 -2 99 -8 120 -41 138 -16 9 -22 8
-29 -2 -6 -10 -9 -11 -9 -1 0 17 -256 17 -263 0 -4 -10 -6 -10 -6 0 -1 9 -26
12 -91 12 -89 0 -91 0 -79 21 8 15 8 19 0 15 -7 -5 -10 2 -9 18 1 15 7 26 12
26 5 0 7 3 3 6 -6 7 22 39 34 39 4 0 11 4 16 8 4 5 1 7 -7 5 -10 -2 -14 3 -12
17 2 11 4 31 6 45 1 15 7 24 16 22 11 -3 11 0 0 13 -7 8 -10 18 -7 22 4 3 2
15 -4 26 -6 10 -7 17 -2 14 5 -4 10 0 10 8 0 8 -4 12 -9 9 -4 -3 -8 3 -8 13 0
31 -47 121 -72 137 -30 20 -125 53 -174 60 -20 4 -46 8 -58 11 -21 4 -99 15
-146 20 -101 10 -164 16 -225 21 -38 3 -83 8 -100 10 -16 3 -45 7 -64 10 -19
2 -37 6 -41 9 -3 2 -29 7 -56 11 -27 3 -52 8 -55 10 -11 6 -234 45 -284 50
-27 2 -63 7 -80 10 -54 12 -159 11 -207 -1z m-838 -709 c0 -2 -7 -7 -16 -10
-8 -3 -12 -2 -9 4 6 10 25 14 25 6z m-145 -18 c5 4 5 1 1 -6 -6 -10 -11 -10
-22 -1 -8 6 -14 14 -14 16 0 3 6 0 13 -6 8 -6 18 -7 22 -3z m320 0 c5 4 5 1 1
-6 -6 -10 -11 -10 -22 -1 -8 6 -14 14 -14 16 0 3 6 0 13 -6 8 -6 18 -7 22 -3z
m105 8 c0 -2 -8 -10 -17 -17 -16 -13 -17 -12 -4 4 13 16 21 21 21 13z m2198
-21 c-3 -3 -9 2 -12 12 -6 14 -5 15 5 6 7 -7 10 -15 7 -18z m134 10 c3 3 11
-3 19 -12 12 -16 12 -17 -2 -6 -9 7 -18 11 -21 8 -3 -3 -11 3 -19 12 -12 16
-12 17 2 6 9 -7 18 -11 21 -8z m-3021 -12 c13 -16 12 -17 -3 -4 -10 7 -18 15
-18 17 0 8 8 3 21 -13z m164 -1 c-3 -3 -11 0 -18 7 -9 10 -8 11 6 5 10 -3 15
-9 12 -12z m596 1 c13 -16 12 -17 -3 -4 -10 7 -18 15 -18 17 0 8 8 3 21 -13z
m2330 4 c-6 -8 -9 -16 -6 -19 3 -3 -3 -11 -12 -19 -16 -13 -17 -12 -4 4 7 9
10 17 6 17 -4 0 -2 7 5 15 7 8 15 15 17 15 3 0 0 -6 -6 -13z m53 -3 c3 -8 2
-12 -4 -9 -6 3 -10 10 -10 16 0 14 7 11 14 -7z m-3176 -39 c-3 -3 -9 2 -12 12
-6 14 -5 15 5 6 7 -7 10 -15 7 -18z m3220 0 c-3 -3 -9 2 -12 12 -6 14 -5 15 5
6 7 -7 10 -15 7 -18z m74 10 c3 0 9 -3 13 -7 4 -3 0 -5 -9 -4 -9 1 -22 8 -29
16 -10 10 -9 11 3 4 8 -5 18 -9 22 -9z m-3258 -11 c3 -8 2 -12 -4 -9 -6 3 -10
10 -10 16 0 14 7 11 14 -7z m483 1 c0 -8 -4 -12 -9 -9 -5 3 -6 10 -3 15 9 13
12 11 12 -6z m240 0 c0 -8 -4 -12 -9 -9 -5 3 -6 10 -3 15 9 13 12 11 12 -6z
m2083 11 c0 -2 -7 -7 -16 -10 -8 -3 -12 -2 -9 4 6 10 25 14 25 6z m57 -15 c0
-11 -5 -18 -9 -15 -4 3 -5 11 -1 19 7 21 12 19 10 -4z m-140 -6 c0 -8 -4 -12
-9 -9 -5 3 -6 10 -3 15 9 13 12 11 12 -6z m-2437 1 c0 -2 -7 -7 -16 -10 -8 -3
-12 -2 -9 4 6 10 25 14 25 6z m320 0 c0 -2 -7 -7 -16 -10 -8 -3 -12 -2 -9 4 6
10 25 14 25 6z m-639 -23 c13 -16 12 -17 -3 -4 -10 7 -18 15 -18 17 0 8 8 3
21 -13z m411 2 c3 0 9 -3 13 -7 4 -3 0 -5 -9 -4 -9 1 -22 8 -29 16 -10 10 -9
11 3 4 8 -5 18 -9 22 -9z m-362 -1 c0 -8 -19 -13 -24 -6 -3 5 1 9 9 9 8 0 15
-2 15 -3z m739 -8 c9 -11 9 -16 -1 -22 -7 -4 -10 -4 -6 1 4 4 3 14 -3 22 -6 7
-9 13 -6 13 2 0 10 -6 16 -14z m2206 -4 c-3 -3 -11 0 -18 7 -9 10 -8 11 6 5
10 -3 15 -9 12 -12z m-2710 -12 c-3 -5 -12 -10 -18 -10 -7 0 -6 4 3 10 19 12
23 12 15 0z m2591 -15 c-1 -8 -5 -17 -8 -21 -5 -4 -4 16 1 34 3 9 9 -1 7 -13z
m-2656 -1 c0 -8 -19 -13 -24 -6 -3 5 1 9 9 9 8 0 15 -2 15 -3z m215 -4 c3 -5
1 -10 -4 -10 -6 0 -11 5 -11 10 0 6 2 10 4 10 3 0 8 -4 11 -10z m375 6 c0 -2
-8 -10 -17 -17 -16 -13 -17 -12 -4 4 13 16 21 21 21 13z m34 -4 c3 -5 -1 -9
-9 -9 -8 0 -12 4 -9 9 3 4 7 8 9 8 2 0 6 -4 9 -8z m1961 -2 c3 -6 -1 -7 -9 -4
-18 7 -21 14 -7 14 6 0 13 -4 16 -10z m195 6 c0 -2 -7 -7 -16 -10 -8 -3 -12
-2 -9 4 6 10 25 14 25 6z m154 -4 c3 -5 -1 -9 -9 -9 -8 0 -12 4 -9 9 3 4 7 8
9 8 2 0 6 -4 9 -8z m76 2 c0 -8 -19 -13 -24 -6 -3 5 1 9 9 9 8 0 15 -2 15 -3z
m-2785 -44 c3 -6 -1 -7 -9 -4 -18 7 -21 14 -7 14 6 0 13 -4 16 -10z m392 -7
c0 -9 -4 -10 -14 -2 -7 6 -13 12 -13 14 0 1 6 2 13 2 8 0 14 -6 14 -14z m2097
1 c3 -8 2 -12 -4 -9 -6 3 -10 10 -10 16 0 14 7 11 14 -7z m370 8 c3 -5 -1 -9
-9 -9 -8 0 -12 4 -9 9 3 4 7 8 9 8 2 0 6 -4 9 -8z m-3227 -37 c0 -8 -4 -12 -9
-9 -5 3 -6 10 -3 15 9 13 12 11 12 -6z m238 6 c3 -5 2 -12 -3 -15 -5 -3 -9 1
-9 9 0 17 3 19 12 6z m2663 -16 c-3 -3 -9 2 -12 12 -6 14 -5 15 5 6 7 -7 10
-15 7 -18z m139 10 c0 -8 -4 -12 -9 -9 -5 3 -6 10 -3 15 9 13 12 11 12 -6z
m-2997 -1 c0 -8 -19 -13 -24 -6 -3 5 1 9 9 9 8 0 15 -2 15 -3z m155 -3 c3 -5
2 -12 -3 -15 -5 -3 -9 1 -9 9 0 17 3 19 12 6z m120 -19 c-3 -3 1 -12 8 -21 11
-14 10 -14 -6 -2 -9 8 -15 16 -12 19 3 3 -1 12 -8 21 -11 14 -10 14 6 2 9 -8
15 -16 12 -19z m2450 18 c-3 -5 -12 -10 -18 -10 -7 0 -6 4 3 10 19 12 23 12
15 0z m312 -5 c0 -8 -4 -12 -9 -9 -5 3 -6 10 -3 15 9 13 12 11 12 -6z m-207
-30 c-7 -9 -15 -13 -18 -10 -3 3 -12 -1 -21 -8 -14 -11 -14 -10 -2 5 7 10 17
16 21 13 5 -3 11 -1 15 5 3 5 9 10 12 10 3 0 0 -7 -7 -15z m-2750 -9 c-7 -7
-13 -7 -20 0 -6 6 -3 10 10 10 13 0 16 -4 10 -10z m3035 -4 c-3 -3 -11 0 -18
7 -9 10 -8 11 6 5 10 -3 15 -9 12 -12z m-2775 -6 c0 -3 -4 -8 -10 -11 -5 -3
-10 -1 -10 4 0 6 5 11 10 11 6 0 10 -2 10 -4z m-466 -36 c-6 -6 -10 -3 -10 10
0 13 4 16 10 10 7 -7 7 -13 0 -20z m3201 21 c3 -5 2 -12 -3 -15 -5 -3 -9 1 -9
9 0 17 3 19 12 6z m-3160 -19 c-3 -3 -11 0 -18 7 -9 10 -8 11 6 5 10 -3 15 -9
12 -12z m36 1 c13 -16 12 -17 -3 -4 -10 7 -18 15 -18 17 0 8 8 3 21 -13z m250
4 c-6 -8 -9 -16 -6 -19 3 -3 -3 -11 -12 -19 -16 -13 -17 -12 -4 4 7 9 10 17 6
17 -4 0 -2 7 5 15 7 8 15 15 17 15 3 0 0 -6 -6 -13z m2619 7 c0 -8 -19 -13
-24 -6 -3 5 1 9 9 9 8 0 15 -2 15 -3z m34 -2 c3 -5 -1 -9 -9 -9 -8 0 -12 4 -9
9 3 4 7 8 9 8 2 0 6 -4 9 -8z m266 4 c0 -2 -7 -7 -16 -10 -8 -3 -12 -2 -9 4 6
10 25 14 25 6z m-2885 -15 c3 -5 2 -12 -3 -15 -5 -3 -9 1 -9 9 0 17 3 19 12 6z
m2229 -9 c3 -5 -1 -9 -9 -9 -8 0 -12 4 -9 9 3 4 7 8 9 8 2 0 6 -4 9 -8z m330
-1 c3 -5 -2 -15 -12 -22 -15 -12 -16 -12 -5 2 7 9 10 19 6 22 -3 4 -4 7 0 7 3
0 8 -4 11 -9z m-2239 -10 c3 -5 2 -12 -3 -15 -5 -3 -9 1 -9 9 0 17 3 19 12 6z
m-590 -11 c3 -6 -1 -7 -9 -4 -18 7 -21 14 -7 14 6 0 13 -4 16 -10z m3028 -10
c10 -12 9 -12 -4 -2 -9 6 -18 9 -21 6 -3 -3 -9 -1 -12 4 -9 15 22 8 37 -8z
m-2756 -5 c0 -8 -4 -12 -9 -9 -5 3 -6 10 -3 15 9 13 12 11 12 -6z m-232 -5
c-3 -5 -12 -10 -18 -10 -7 0 -6 4 3 10 19 12 23 12 15 0z m150 -8 c-3 -3 -11
0 -18 7 -9 10 -8 11 6 5 10 -3 15 -9 12 -12z m2760 -1 c3 -5 2 -12 -3 -15 -5
-3 -9 1 -9 9 0 17 3 19 12 6z m-25 -7 c0 -8 -19 -13 -24 -6 -3 5 1 9 9 9 8 0
15 -2 15 -3z m121 -17 c-10 -9 -11 -8 -5 6 3 10 9 15 12 12 3 -3 0 -11 -7 -18z
m105 -13 c1 -9 0 -13 -4 -10 -3 4 -7 14 -8 22 -1 9 0 13 4 10 3 -4 7 -14 8
-22z m-196 2 c0 -2 -8 -10 -17 -17 -16 -13 -17 -12 -4 4 13 16 21 21 21 13z
m-2496 -14 c3 -5 -1 -9 -9 -9 -8 0 -12 4 -9 9 3 4 7 8 9 8 2 0 6 -4 9 -8z
m2287 -15 c-10 -9 -11 -8 -5 6 3 10 9 15 12 12 3 -3 0 -11 -7 -18z m120 6 c13
-16 12 -17 -3 -4 -10 7 -18 15 -18 17 0 8 8 3 21 -13z m-2316 -13 c3 -5 1 -10
-4 -10 -6 0 -11 5 -11 10 0 6 2 10 4 10 3 0 8 -4 11 -10z m1979 2 c2 -4 -5 -9
-17 -9 -17 -2 -19 0 -7 7 18 12 18 12 24 2z m-2447 -19 c-14 -14 -19 -15 -29
-4 -11 10 -10 11 3 6 10 -4 20 -2 24 4 3 6 9 11 13 11 3 0 -1 -8 -11 -17z
m2638 -3 c-3 -5 -12 -10 -18 -10 -7 0 -6 4 3 10 19 12 23 12 15 0z m240 0 c-3
-5 -12 -10 -18 -10 -7 0 -6 4 3 10 19 12 23 12 15 0z m-3010 -9 c3 -5 2 -12
-3 -15 -5 -3 -9 1 -9 9 0 17 3 19 12 6z m2522 -6 c0 -8 -4 -12 -9 -9 -5 3 -6
10 -3 15 9 13 12 11 12 -6z m-257 -1 c0 -8 -19 -13 -24 -6 -3 5 1 9 9 9 8 0
15 -2 15 -3z m60 1 c0 -7 -30 -13 -34 -7 -3 4 4 9 15 9 10 1 19 0 19 -2z m125
-5 c3 -6 -1 -7 -9 -4 -18 7 -21 14 -7 14 6 0 13 -4 16 -10z m591 -15 c-1 -8
-5 -17 -8 -21 -5 -4 -4 16 1 34 3 9 9 -1 7 -13z m-2826 1 c0 -2 -8 -10 -17
-17 -16 -13 -17 -12 -4 4 13 16 21 21 21 13z m35 -6 c-3 -5 -12 -10 -18 -10
-7 0 -6 4 3 10 19 12 23 12 15 0z m205 6 c0 -2 -8 -10 -17 -17 -16 -13 -17
-12 -4 4 13 16 21 21 21 13z m35 -6 c-3 -5 -12 -10 -18 -10 -7 0 -6 4 3 10 19
12 23 12 15 0z m1916 -3 c-6 -8 -7 -18 -3 -22 4 -5 1 -5 -6 -1 -10 6 -10 11
-1 22 6 8 14 14 16 14 3 0 0 -6 -6 -13z m240 0 c-6 -8 -8 -16 -5 -19 3 -3 1
-9 -4 -12 -6 -3 -9 0 -8 6 2 16 15 38 23 38 3 0 0 -6 -6 -13z m209 9 c0 -2 -8
-10 -17 -17 -16 -13 -17 -12 -4 4 13 16 21 21 21 13z m35 -6 c-3 -5 -12 -10
-18 -10 -7 0 -6 4 3 10 19 12 23 12 15 0z m-2770 -48 c-3 -3 -11 0 -18 7 -9
10 -8 11 6 5 10 -3 15 -9 12 -12z m240 0 c-3 -3 -11 0 -18 7 -9 10 -8 11 6 5
10 -3 15 -9 12 -12z m1962 3 c0 -8 -4 -12 -9 -9 -5 3 -6 10 -3 15 9 13 12 11
12 -6z m198 -3 c-3 -3 -11 0 -18 7 -9 10 -8 11 6 5 10 -3 15 -9 12 -12z m240
0 c-3 -3 -11 0 -18 7 -9 10 -8 11 6 5 10 -3 15 -9 12 -12z m240 0 c-3 -3 -11
0 -18 7 -9 10 -8 11 6 5 10 -3 15 -9 12 -12z m85 14 c0 -2 -7 -7 -16 -10 -8
-3 -12 -2 -9 4 6 10 25 14 25 6z m-2380 -640 c0 -3 -4 -8 -10 -11 -5 -3 -10
-1 -10 4 0 6 5 11 10 11 6 0 10 -2 10 -4z"/>
<path d="M1235 2600 c-3 -5 -1 -10 4 -10 6 0 11 5 11 10 0 6 -2 10 -4 10 -3 0
-8 -4 -11 -10z"/>
<path d="M2948 2183 c7 -3 16 -2 19 1 4 3 -2 6 -13 5 -11 0 -14 -3 -6 -6z"/>
<path d="M2193 1505 c0 -8 4 -15 9 -15 4 0 8 4 8 9 0 6 -4 12 -8 15 -5 3 -9
-1 -9 -9z"/>
<path d="M2156 1482 c-3 -5 1 -9 9 -9 8 0 15 4 15 9 0 4 -4 8 -9 8 -6 0 -12
-4 -15 -8z"/>
<path d="M2100 1426 c0 -2 7 -6 15 -10 8 -3 15 -1 15 4 0 6 -7 10 -15 10 -8 0
-15 -2 -15 -4z"/>
<path d="M2090 1406 c0 -2 7 -7 16 -10 8 -3 12 -2 9 4 -6 10 -25 14 -25 6z"/>
<path d="M2135 1391 c-3 -5 -2 -12 3 -15 5 -3 9 1 9 9 0 17 -3 19 -12 6z"/>
<path d="M2075 1380 c3 -5 8 -10 11 -10 2 0 4 5 4 10 0 6 -5 10 -11 10 -5 0
-7 -4 -4 -10z"/>
<path d="M1980 1350 c-14 -11 -20 -20 -14 -20 6 0 19 9 29 20 23 25 17 25 -15
0z"/>
<path d="M2066 1357 c3 -10 9 -15 12 -12 3 3 0 11 -7 18 -10 9 -11 8 -5 -6z"/>
<path d="M690 1320 c0 -5 5 -10 11 -10 5 0 7 5 4 10 -3 6 -8 10 -11 10 -2 0
-4 -4 -4 -10z"/>
<path d="M1952 1314 c10 -10 20 -16 22 -13 3 3 -5 11 -17 18 -21 13 -21 12 -5
-5z"/>
<path d="M1993 1315 c0 -8 4 -12 9 -9 4 3 8 9 8 15 0 5 -4 9 -8 9 -5 0 -9 -7
-9 -15z"/>
<path d="M1926 1305 c4 -8 11 -15 16 -15 6 0 5 6 -2 15 -7 8 -14 15 -16 15 -2
0 -1 -7 2 -15z"/>
<path d="M1895 1300 c3 -5 11 -10 16 -10 6 0 7 5 4 10 -3 6 -11 10 -16 10 -6
0 -7 -4 -4 -10z"/>
<path d="M1956 1282 c-3 -5 1 -9 9 -9 8 0 12 4 9 9 -3 4 -7 8 -9 8 -2 0 -6 -4
-9 -8z"/>
<path d="M1915 1260 c-3 -5 -1 -10 4 -10 6 0 11 5 11 10 0 6 -2 10 -4 10 -3 0
-8 -4 -11 -10z"/>
<path d="M1949 1243 c-13 -16 -12 -17 4 -4 16 13 21 21 13 21 -2 0 -10 -8 -17
-17z"/>
<path d="M1776 1234 c-4 -9 -4 -19 -1 -22 2 -3 7 3 11 12 4 9 4 19 1 22 -2 3
-7 -3 -11 -12z"/>
<path d="M1800 1239 c0 -5 5 -7 10 -4 6 3 10 8 10 11 0 2 -4 4 -10 4 -5 0 -10
-5 -10 -11z"/>
<path d="M1814 1215 c-4 -8 -11 -12 -17 -8 -6 3 -7 1 -3 -5 10 -16 14 -15 26
8 6 11 8 20 5 20 -3 0 -8 -7 -11 -15z"/>
<path d="M1757 1193 c-10 -9 -9 -23 1 -23 5 0 9 7 9 15 0 17 -1 18 -10 8z"/>
<path d="M1638 1158 c-8 -19 17 -33 28 -16 4 6 3 8 -4 4 -6 -3 -12 2 -14 11
-3 16 -4 17 -10 1z"/>
<path d="M1705 1159 c-11 -16 -1 -19 13 -3 7 8 8 14 3 14 -5 0 -13 -5 -16 -11z"/>
<path d="M1606 1143 c-6 -14 -5 -15 5 -6 7 7 10 15 7 18 -3 3 -9 -2 -12 -12z"/>
<path d="M1620 1119 c0 -5 5 -7 10 -4 6 3 10 8 10 11 0 2 -4 4 -10 4 -5 0 -10
-5 -10 -11z"/>
<path d="M1674 1122 c4 -3 14 -7 22 -8 9 -1 13 0 10 4 -4 3 -14 7 -22 8 -9 1
-13 0 -10 -4z"/>
<path d="M1593 1092 c0 -10 7 -19 14 -19 9 0 10 4 3 12 -5 7 -7 15 -3 18 3 4
1 7 -5 7 -6 0 -10 -8 -9 -18z"/>
<path d="M1440 1093 c-35 -14 -33 -49 2 -37 15 4 18 3 13 -6 -5 -9 -4 -11 4
-6 18 12 1 27 -22 21 -20 -6 -20 -5 3 14 26 21 26 24 0 14z"/>
<path d="M1500 1096 c0 -2 7 -6 15 -10 8 -3 15 -1 15 4 0 6 -7 10 -15 10 -8 0
-15 -2 -15 -4z"/>
<path d="M1470 1080 c0 -5 5 -10 10 -10 6 0 10 5 10 10 0 6 -4 10 -10 10 -5 0
-10 -4 -10 -10z"/>
<path d="M1380 1070 c-9 -6 -10 -10 -3 -10 6 0 15 5 18 10 8 12 4 12 -15 0z"/>
<path d="M1340 1060 c-8 -5 -10 -10 -5 -10 6 0 3 -5 -5 -10 -9 -6 -10 -10 -3
-10 7 0 17 9 23 20 12 23 11 24 -10 10z"/>
<path d="M1500 1066 c0 -2 9 -6 20 -9 11 -3 18 -1 14 4 -5 9 -34 13 -34 5z"/>
<path d="M1283 1035 c-19 -21 -16 -27 7 -13 11 7 20 16 20 20 0 12 -14 9 -27
-7z"/>
<path d="M1380 1046 c0 -2 7 -6 15 -10 8 -3 15 -1 15 4 0 6 -7 10 -15 10 -8 0
-15 -2 -15 -4z"/>
<path d="M1350 1020 c0 -5 5 -10 10 -10 6 0 10 5 10 10 0 6 -4 10 -10 10 -5 0
-10 -4 -10 -10z"/>
<path d="M1450 1019 c0 -5 5 -7 10 -4 6 3 10 8 10 11 0 2 -4 4 -10 4 -5 0 -10
-5 -10 -11z"/>
<path d="M1310 1009 c0 -5 -4 -8 -8 -5 -5 3 -9 -1 -9 -9 0 -10 4 -12 12 -5 7
5 15 7 19 3 4 -4 4 0 0 10 -7 19 -14 22 -14 6z"/>
<path d="M1409 1003 c-13 -16 -12 -17 4 -4 16 13 21 21 13 21 -2 0 -10 -8 -17
-17z"/>
<path d="M1231 997 c-1 -11 -6 -15 -13 -11 -7 5 -8 3 -3 -5 10 -16 29 2 22 21
-4 8 -6 7 -6 -5z"/>
<path d="M1040 959 c-7 -11 -9 -23 -7 -26 3 -2 8 5 12 16 7 23 16 26 31 12 5
-6 16 -4 28 5 11 8 15 14 10 14 -6 0 -15 -5 -21 -11 -8 -8 -13 -8 -17 0 -11
17 -24 13 -36 -10z"/>
<path d="M1170 971 c0 -7 -5 -9 -12 -5 -7 4 -10 4 -6 -1 4 -4 3 -13 -2 -20 -7
-8 -5 -12 5 -12 8 0 13 3 10 5 -3 3 0 11 7 19 6 7 8 16 4 20 -3 3 -6 1 -6 -6z"/>
<path d="M1190 976 c0 -2 8 -10 18 -17 15 -13 16 -12 3 4 -13 16 -21 21 -21
13z"/>
<path d="M1003 956 c-13 -6 -23 -15 -23 -20 0 -4 -8 -2 -17 5 -16 13 -17 12
-4 -3 12 -17 15 -17 42 3 16 11 29 22 29 25 0 2 -1 3 -2 3 -2 -1 -13 -6 -25
-13z"/>
<path d="M1104 945 c-18 -15 -18 -15 0 -8 15 5 17 3 11 -8 -5 -8 -4 -11 0 -6
8 7 17 37 11 37 -1 0 -11 -7 -22 -15z"/>
<path d="M1055 939 c-4 -6 -4 -13 -1 -16 3 -4 6 -1 6 6 0 7 5 9 12 5 7 -4 8
-3 4 4 -9 15 -13 15 -21 1z"/>
<path d="M995 920 c-3 -5 -2 -10 4 -10 5 0 13 5 16 10 3 6 2 10 -4 10 -5 0
-13 -4 -16 -10z"/>
<path d="M801 905 c1 -19 18 -51 18 -35 0 8 -4 22 -9 30 -5 8 -9 11 -9 5z"/>
<path d="M835 890 c10 -11 20 -20 23 -20 3 0 -3 9 -13 20 -10 11 -20 20 -23
20 -3 0 3 -9 13 -20z"/>
<path d="M935 901 c-3 -5 0 -13 6 -17 7 -4 9 -3 5 4 -3 5 0 13 6 15 9 4 10 6
1 6 -6 1 -14 -3 -18 -8z"/>
<path d="M970 900 c0 -5 5 -10 11 -10 5 0 7 5 4 10 -3 6 -8 10 -11 10 -2 0 -4
-4 -4 -10z"/>
<path d="M1135 901 c-3 -5 -2 -12 3 -15 5 -3 9 1 9 9 0 17 -3 19 -12 6z"/>
<path d="M735 880 c-3 -5 -1 -10 4 -10 6 0 11 5 11 10 0 6 -2 10 -4 10 -3 0
-8 -4 -11 -10z"/>
<path d="M696 862 c-2 -4 -1 -14 3 -20 6 -10 11 -9 21 3 11 13 10 14 -5 9 -13
-5 -16 -4 -11 4 4 7 5 12 2 12 -3 0 -7 -4 -10 -8z"/>
<path d="M793 851 c0 -11 5 -18 9 -15 4 3 5 11 1 19 -7 21 -12 19 -10 -4z"/>
<path d="M830 860 c0 -5 5 -10 11 -10 5 0 7 5 4 10 -3 6 -8 10 -11 10 -2 0 -4
-4 -4 -10z"/>
<path d="M743 840 c-8 -12 -9 -21 -3 -25 6 -4 9 -1 8 7 -2 7 2 12 9 11 7 -2
10 4 7 12 -8 19 -7 19 -21 -5z"/>
<path d="M930 841 c0 -6 4 -13 10 -16 6 -3 7 1 4 9 -7 18 -14 21 -14 7z"/>
</g>
</svg>
